inDegrees=yes
name=ik_S40_A02_T01
DataType=double
version=3
OpenSimVersion=4.3-2021-08-27-4bc7ad9
endheader
time	pelvis_tilt	pelvis_list	pelvis_rotation	pelvis_tx	pelvis_ty	pelvis_tz	hip_flexion_r	hip_adduction_r	hip_rotation_r	knee_angle_r	knee_angle_r_beta	ankle_angle_r	subtalar_angle_r	mtp_angle_r	hip_flexion_l	hip_adduction_l	hip_rotation_l	knee_angle_l	knee_angle_l_beta	ankle_angle_l	subtalar_angle_l	mtp_angle_l	lumbar_extension	lumbar_bending	lumbar_rotation	arm_flex_r	arm_add_r	arm_rot_r	elbow_flex_r	pro_sup_r	wrist_flex_r	wrist_dev_r	arm_flex_l	arm_add_l	arm_rot_l	elbow_flex_l	pro_sup_l	wrist_flex_l	wrist_dev_l
18.63999999999969	-1.402796451835027	11.70660818306769	-88.82640922377578	0	0.9399999999999999	0	15.69143923893287	-0.4614248237390689	-4.518300023846026	13.59497193053899	0.2372770219041153	0	0	0	27.17564679848471	-3.369655661789783	-0.2175214724602142	-8.034880412427214	-0.1402351182008548	0	0	0	0	0	0	37.82642213728778	-37.82642213728778	4.798253991964629	82.10042517239249	85.20174627377875	0	0	37.82642213728778	-37.82642213728778	4.798253991964629	82.10042517239249	85.20174627374047	0	0
18.65999999999969	-1.410227898779571	12.03949724538361	-88.31784245849225	0	0.9399999999999999	0	15.49277610152181	-0.2926708142770778	-6.607520320877463	11.28676449387696	0.1969912023153443	0	0	0	27.71174930076759	-3.519212050503099	-3.167762598418572	-9.838534069836543	-0.1717148130882854	0	0	0	0	0	0	37.82520628834985	-37.82520628834985	4.798238616859751	82.10020591894647	85.20176164888323	0	0	37.82520628834985	-37.82520628834985	4.798238616859751	82.10020591894647	85.20176164884496	0	0
18.67999999999969	-1.480095019450771	12.49161769840428	-87.52159299065573	0	0.9399999999999999	0	15.07811735503538	0.02868455876282233	-9.165351453025806	7.825487421666783	0.1365805210814872	0	0	0	28.82856659935887	-3.579051508799958	-6.489678164975608	-9.810778124842031	-0.1712303804611287	0	0	0	0	0	0	37.84002413746071	-37.84002413746071	4.798990669559601	82.11102132093343	85.20100959621801	0	0	37.84002413746071	-37.84002413746071	4.798990669559601	82.11102132093343	85.2010095961799	0	0
18.69999999999969	-1.608782640224258	12.93548976554539	-86.39262064760896	0	0.9399999999999999	0	15.40572535375741	0.08534474191707823	-10.81073204065808	6.01059232037062	0.1049046259855532	0	0	0	29.7532863760598	-3.363010529454725	-7.000038696985992	-9.831524674653181	-0.1715924760637623	0	0	0	0	0	0	37.84320391283163	-37.84320391283163	4.79916980402831	82.11359825116224	85.20083046175769	0	0	37.84320391283163	-37.84320391283163	4.79916980402831	82.11359825116224	85.20083046171966	0	0
18.71999999999969	-1.843359167477197	13.06764665490966	-84.95788915857774	0	0.9399999999999999	0	15.56302830522085	-0.06654985474270274	-12.20242888848114	6.054418325240751	0.105669534068532	0	0	0	30.06015861577979	-3.045721140601119	-7.571577977373038	-9.412054756617533	-0.1642713448809695	0	0	0	0	0	0	37.85797541904002	-37.85797541904002	4.799891995749487	82.12398311255016	85.20010827006956	0	0	37.85797541904002	-37.85797541904002	4.799891995749487	82.12398311255016	85.20010827003168	0	0
18.73999999999969	-2.231096795675302	13.36653206609444	-83.66273507361505	0	0.9399999999999999	0	16.17459928267094	0.1100890001927936	-12.52424416754736	7.576739650559192	0.1322390534686625	0	0	0	30.51308397373736	-3.107098937449665	-7.638159077399425	-7.420071962604313	-0.1295046864823628	0	0	0	0	0	0	37.86265930720704	-37.86265930720704	4.800155615352828	82.12777536723127	85.19984465047858	0	0	37.86265930720704	-37.86265930720704	4.800155615352828	82.12777536723127	85.19984465044075	0	0
18.75999999999969	-2.538637840503377	13.86603440232581	-82.75328240578618	0	0.9399999999999999	0	19.07799273203507	0.8693714535199861	-7.903427488771698	8.105995187923234	0.1414763051800769	0	0	0	31.15674876255978	-3.450996386410932	-7.982492755182069	-5.261401699329912	-0.0918287829233317	0	0	0	0	0	0	37.88323804864851	-37.88323804864851	4.801156773963223	82.14217147165293	85.19884349191395	0	0	37.88323804864851	-37.88323804864851	4.801156773963223	82.14217147165293	85.19884349187632	0	0
18.77999999999969	-2.739592020214904	13.89896926217297	-81.83291701505692	0	0.9399999999999999	0	19.64182542098317	0.8851936548724091	-8.152912354815216	5.987355207639379	0.1044990618597359	0	0	0	31.53509629042955	-3.897444536504913	-7.338029244124129	0.1322796569106676	0.00230871554649962	0	0	0	0	0	0	37.97028021846271	-37.97028021846271	4.805314366299051	82.20195163015886	85.19468589976753	0	0	37.97028021846271	-37.97028021846271	4.805314366299051	82.20195163015886	85.1946858997307	0	0
18.79999999999969	-2.856954691116714	13.67799143459307	-80.90501829388629	0	0.9399999999999999	0	19.32114616127729	1.065559138835395	-11.02516555720445	3.464217974171553	0.06046200965606149	0	0	0	31.43394696945182	-3.933344758387403	-5.579377685685061	2.483937544567695	0.04335288856660967	0	0	0	0	0	0	37.98504736101421	-37.98504736101421	4.806043272387925	82.21243320516662	85.19395699371206	0	0	37.98504736101421	-37.98504736101421	4.806043272387925	82.21243320516662	85.1939569936754	0	0
18.81999999999969	-2.718130377621914	13.38157960953594	-79.87794277464968	0	0.9399999999999999	0	19.10927947965973	0.8206738922200384	-12.59325383990764	1.696205564127286	0.02960437188466895	0	0	0	30.99442788254799	-4.693675537808025	-4.100689736205518	8.496612384611941	0.1482938613772052	0	0	0	0	0	0	38.10216416949689	-38.10216416949689	4.811609556155844	82.29246652541003	85.18839071019738	0	0	38.10216416949689	-38.10216416949689	4.811609556155844	82.29246652541003	85.18839071016176	0	0
18.83999999999969	-2.621305906152879	13.38644340431952	-79.66373212653808	0	0.9399999999999999	0	19.54415469300305	0.6860495369143829	-11.98587881943674	1.867933359863749	0.03260158733746252	0	0	0	30.49841337673066	-5.174255371911156	-4.002694241690896	12.59756887327022	0.2198690545853176	0	0	0	0	0	0	38.10516556643978	-38.10516556643978	4.811773923050496	82.2948306787619	85.1882263433104	0	0	38.10516556643978	-38.10516556643978	4.811773923050496	82.2948306787619	85.18822634327479	0	0
18.85999999999969	-2.462762596600192	13.29070393681054	-79.27526112983384	0	0.9399999999999999	0	20.12497459281317	0.3574055712128073	-12.00986842170662	1.912781973362621	0.03338434330797221	0	0	0	29.48317151138027	-5.014374644993066	-3.731070889887875	16.18699561342732	0.282516369460186	0	0	0	0	0	0	38.10841663326021	-38.10841663326021	4.811951444580876	82.29738401960482	85.1880488217883	0	0	38.10841663326021	-38.10841663326021	4.811951444580876	82.29738401960482	85.1880488217527	0	0
18.87999999999969	-2.347901458991003	13.18738685410121	-78.89897745263197	0	0.9399999999999999	0	19.96956318469883	0.2351556612426011	-12.41515118842401	0.248956550830315	0.004345111506397619	0	0	0	28.25809544805261	-5.022009435366534	-3.408228916593351	17.52750074246357	0.3059125976017399	0	0	0	0	0	0	38.1106572192334	-38.1106572192334	4.812073813137604	82.29914408030622	85.18792645323731	0	0	38.1106572192334	-38.1106572192334	4.812073813137604	82.29914408030622	85.18792645320174	0	0
18.89999999999969	-2.284988654400146	13.05825686757304	-78.5410601338202	0	0.9399999999999999	0	20.46976550756245	0.1620435106319208	-13.60725913604383	-1.485535677437687	-0.02592748872713208	0	0	0	25.37675387248473	-5.307138472237583	-3.146639827547717	18.85543684399745	0.3290894548296038	0	0	0	0	0	0	38.12809321116609	-38.12809321116609	4.812886621512907	82.31083009558093	85.18711364489884	0	0	38.12809321116609	-38.12809321116609	4.812886621512907	82.31083009558093	85.1871136448634	0	0
18.91999999999969	-2.278147324755162	13.02089932031756	-78.54777048976274	0	0.9399999999999999	0	21.01859964357268	0.1668588231927733	-13.49182239817624	-1.509886282066699	-0.02635248695275971	0	0	0	23.5852677596753	-5.519091978377303	-2.926360778275388	20.89901420017883	0.3647566082141699	0	0	0	0	0	0	38.13027897120694	-38.13027897120694	4.813005652061126	82.31254212399666	85.18699461435618	0	0	38.13027897120694	-38.13027897120694	4.813005652061126	82.31254212399666	85.18699461432075	0	0
18.93999999999969	-2.182486603773778	12.90041419250423	-78.13652284033959	0	0.9399999999999999	0	21.69752904852662	0.04466394077045369	-13.52926626294532	-1.299178253040582	-0.02267493808586618	0	0	0	23.48004683145667	-5.638384108974938	-2.384953381178351	26.27356248465313	0.4585601715856592	0	0	0	0	0	0	38.13363344324097	-38.13363344324097	4.813187866648714	82.31516291651181	85.186812399777	0	0	38.13363344324097	-38.13363344324097	4.813187866648714	82.31516291651181	85.18681239974165	0	0
